<svg width="25" height="25" viewBox="0 0 25 25" fill="none" xmlns="http://www.w3.org/2000/svg">
<path d="M24.1552 19.7008L20.025 15.586C20.776 14.0898 21.2766 12.3441 21.2766 10.5985C21.2766 4.73816 16.5206 0 10.6383 0C4.75594 0 0 4.73816 0 10.5985C0 16.4589 4.75594 21.197 10.6383 21.197C12.3905 21.197 14.1427 20.6983 15.6446 19.9501L19.7747 24.0648C21.0263 25.3117 22.9036 25.3117 24.1552 24.0648C25.2816 22.818 25.2816 20.9476 24.1552 19.7008ZM10.6383 18.7032C6.13267 18.7032 2.50313 15.0873 2.50313 10.5985C2.50313 6.10973 6.13267 2.49377 10.6383 2.49377C15.1439 2.49377 18.7735 6.10973 18.7735 10.5985C18.7735 15.0873 15.1439 18.7032 10.6383 18.7032Z" fill="#1771F1"/>
</svg>
